<?xml version="1.0" standalone="no"?>
<!DOCTYPE svg PUBLIC "-//W3C//DTD SVG 20010904//EN"
 "http://www.w3.org/TR/2001/REC-SVG-20010904/DTD/svg10.dtd">
<svg version="1.0" xmlns="http://www.w3.org/2000/svg"
 width="333.000000pt" height="396.000000pt" viewBox="0 0 333.000000 396.000000"
 preserveAspectRatio="xMidYMid meet">

<g transform="translate(0.000000,396.000000) scale(0.100000,-0.100000)" fill="#FFFFFF" stroke="none">
<path d="M494 3752 c-96 -34 -165 -114 -184 -217 -8 -42 -10 -375 -8 -1135 3
-995 4 -1078 20 -1113 30 -67 76 -114 140 -146 l61 -31 1102 0 c1222 0 1152
-4 1234 66 23 20 53 57 69 82 26 45 27 53 30 210 l4 164 -93 -63 c-353 -237
-777 -301 -1189 -179 -489 145 -856 552 -967 1070 -27 129 -25 409 6 550 57
264 165 472 351 673 l82 87 -304 0 c-263 -1 -310 -3 -354 -18z"/>
<path d="M1731 3753 c-5 -10 -16 -42 -25 -72 -46 -155 12 -318 146 -417 231
-170 556 -39 608 247 14 75 7 145 -22 211 l-20 48 -339 0 c-312 0 -339 -1
-348 -17z"/>
<path d="M1175 3385 c-239 -52 -390 -316 -317 -553 99 -317 503 -413 736 -174
85 86 131 231 115 363 -9 75 -63 189 -115 241 -56 58 -144 107 -221 123 -82
18 -119 18 -198 0z m222 -107 c73 -27 154 -102 190 -177 24 -48 28 -68 28
-141 0 -73 -4 -93 -28 -142 -35 -72 -97 -134 -167 -167 -46 -22 -69 -26 -145
-26 -80 0 -97 3 -149 30 -267 135 -242 526 42 630 58 21 162 18 229 -7z"/>
<path d="M1204 3112 c-124 -58 -135 -230 -19 -297 140 -82 298 45 247 199 -31
93 -139 139 -228 98z"/>
<path d="M2814 3350 c-100 -20 -194 -82 -249 -165 -96 -145 -86 -333 24 -466
71 -85 200 -143 308 -137 l58 3 3 381 2 381 -31 7 c-38 7 -61 6 -115 -4z"/>
<path d="M2019 2809 c-39 -23 -69 -73 -69 -117 0 -61 73 -132 135 -132 63 0
135 71 135 134 0 42 -37 101 -76 120 -46 21 -81 20 -125 -5z"/>
<path d="M1503 2405 c-264 -57 -387 -360 -238 -590 110 -170 324 -223 513
-126 132 68 219 246 193 396 -30 170 -151 293 -321 325 -64 12 -69 12 -147 -5z"/>
<path d="M2503 2405 c-101 -22 -182 -77 -238 -160 -46 -69 -65 -133 -65 -216
0 -85 21 -152 67 -219 140 -200 425 -227 595 -56 219 218 99 599 -206 655 -71
13 -74 13 -153 -4z"/>
<path d="M240 685 c0 -33 4 -45 15 -45 13 0 15 -20 15 -120 0 -100 -2 -120
-15 -120 -11 0 -15 -12 -15 -45 l0 -45 125 0 125 0 0 45 0 45 -40 0 -40 0 0
45 0 45 45 0 c43 0 45 1 45 30 0 29 -2 30 -45 30 l-45 0 0 45 c0 43 1 45 30
45 27 0 30 -3 30 -30 0 -29 2 -30 45 -30 l45 0 0 75 0 75 -160 0 -160 0 0 -45z"/>
<path d="M610 685 l0 -45 50 0 50 0 0 45 0 45 -50 0 -50 0 0 -45z"/>
<path d="M760 685 c0 -33 4 -45 15 -45 13 0 15 -20 15 -120 0 -100 -2 -120
-15 -120 -11 0 -15 -12 -15 -45 l0 -45 85 0 85 0 0 45 c0 25 -4 45 -10 45 -6
0 -10 62 -10 165 l0 165 -75 0 -75 0 0 -45z"/>
<path d="M1510 685 c0 -33 4 -45 15 -45 13 0 15 -20 15 -120 0 -100 -2 -120
-15 -120 -11 0 -15 -12 -15 -45 l0 -45 125 0 125 0 0 45 c0 45 0 45 -35 45
-35 0 -35 0 -35 45 l0 45 40 0 c38 0 40 2 40 30 0 28 -2 30 -40 30 l-40 0 0
45 c0 41 2 45 25 45 21 0 25 -5 25 -30 0 -29 2 -30 45 -30 l45 0 0 75 0 75
-160 0 -160 0 0 -45z"/>
<path d="M1850 685 c0 -25 5 -45 10 -45 6 0 10 -47 10 -120 0 -73 -4 -120 -10
-120 -5 0 -10 -20 -10 -45 l0 -45 85 0 85 0 0 45 c0 33 -4 45 -15 45 -13 0
-15 25 -15 165 l0 165 -70 0 -70 0 0 -45z"/>
<path d="M2860 685 c0 -33 4 -45 15 -45 9 0 15 -9 15 -25 0 -30 2 -29 -40 -9
-43 22 -95 9 -124 -29 -18 -24 -21 -43 -21 -117 0 -74 3 -93 21 -117 31 -42
83 -52 128 -25 29 17 36 18 36 7 0 -12 16 -15 75 -15 l75 0 0 45 c0 33 -4 45
-15 45 -13 0 -15 25 -15 165 l0 165 -75 0 -75 0 0 -45z m25 -225 c0 -52 -1
-55 -25 -55 -22 0 -25 5 -28 44 -4 57 3 73 30 69 21 -3 23 -9 23 -58z"/>
<path d="M1144 611 c-12 -5 -25 -14 -29 -20 -9 -16 -25 -13 -25 4 0 12 -14 15
-70 15 l-70 0 0 -45 c0 -25 5 -45 10 -45 6 0 10 -27 10 -60 0 -33 -4 -60 -10
-60 -5 0 -10 -20 -10 -45 l0 -45 80 0 80 0 0 45 c0 25 -5 45 -10 45 -7 0 -10
22 -8 58 3 51 5 57 27 60 31 5 41 -12 41 -70 0 -36 -4 -48 -15 -48 -11 0 -15
-12 -15 -45 l0 -45 85 0 85 0 0 45 c0 25 -5 45 -10 45 -7 0 -10 22 -8 58 3 53
5 57 28 57 23 0 25 -4 28 -57 2 -36 -1 -58 -8 -58 -5 0 -10 -20 -10 -45 l0
-45 85 0 85 0 0 45 c0 33 -4 45 -15 45 -12 0 -15 16 -15 81 0 76 -2 82 -29
110 -35 35 -70 37 -126 9 -35 -18 -40 -18 -56 -4 -21 19 -77 27 -105 15z"/>
<path d="M2126 610 c-111 -35 -132 -212 -33 -284 38 -28 150 -30 190 -3 89 58
91 215 3 272 -29 19 -120 28 -160 15z m89 -150 c0 -52 -1 -55 -25 -55 -22 0
-25 5 -28 44 -4 57 3 73 30 69 21 -3 23 -9 23 -58z"/>
<path d="M2451 606 c-67 -24 -101 -97 -86 -186 9 -53 44 -94 93 -108 78 -24
145 -9 192 43 22 24 25 35 25 105 0 70 -3 81 -25 105 -48 52 -125 68 -199 41z
m98 -100 c17 -20 10 -87 -10 -99 -31 -20 -49 -1 -49 51 0 27 3 52 7 55 11 12
40 8 52 -7z"/>
<path d="M580 565 c0 -25 5 -45 10 -45 6 0 10 -27 10 -60 0 -33 -4 -60 -10
-60 -5 0 -10 -20 -10 -45 l0 -45 80 0 80 0 0 45 c0 25 -4 45 -10 45 -6 0 -10
42 -10 105 l0 105 -70 0 -70 0 0 -45z"/>
</g>
</svg>
